<svg xmlns="http://www.w3.org/2000/svg" viewBox="0 0 64 64" role="img" aria-label="QuickResolveAI icon">
  <defs>
    <linearGradient id="bg" x1="8" y1="8" x2="56" y2="56" gradientUnits="userSpaceOnUse">
      <stop offset="0" stop-color="#0ea5e9" />
      <stop offset="1" stop-color="#14b8a6" />
    </linearGradient>
  </defs>
  <rect x="4" y="4" width="56" height="56" rx="16" fill="url(#bg)" />
  <path d="M32 16c-6.6 0-12 5.4-12 12v6.5c0 6.6 5.4 12 12 12s12-5.4 12-12V28c0-6.6-5.4-12-12-12Z" fill="#ffffff" fill-opacity="0.2" />
  <path d="M32 20c4.4 0 8 3.6 8 8v6.5c0 4.4-3.6 8-8 8s-8-3.6-8-8V28c0-4.4 3.6-8 8-8Z" fill="#ffffff" />
  <circle cx="29" cy="31" r="1.7" fill="#0f172a" />
  <circle cx="35" cy="31" r="1.7" fill="#0f172a" />
  <path d="M27.8 36.2h8.4" stroke="#0f172a" stroke-width="2" stroke-linecap="round" />
  <path d="M24 23v-2.5M40 23v-2.5" stroke="#ffffff" stroke-width="2.5" stroke-linecap="round" />
</svg>
